<svg xmlns="http://www.w3.org/2000/svg" width="1135.914" height="509" viewBox="0 0 1135.914 509"><g transform="translate(-125 -943)"><g transform="translate(0 -1)" opacity="0.45"><g transform="translate(924 1178)" fill="none" stroke="#d18672" stroke-width="4" opacity="0.61"><circle cx="9.5" cy="9.5" r="9.5" stroke="none"/><circle cx="9.5" cy="9.5" r="7.5" fill="none"/></g><g transform="translate(1151.393 1033.033) rotate(-45)" fill="none" stroke="#75b9be" stroke-width="4" opacity="0.58"><rect width="15" height="15" stroke="none"/><rect x="2" y="2" width="11" height="11" fill="none"/></g><g transform="translate(1031 1433)" fill="none" opacity="0.45"><path d="M10.5,0,21,20H0Z" stroke="none"/><path d="M 10.5 8.605225563049316 L 6.617743492126465 16 L 14.38225650787354 16 L 10.5 8.605225563049316 M 10.5 0 L 21 20 L 0 20 L 10.5 0 Z" stroke="none" fill="#5caaff"/></g><g transform="translate(142.5 107.041)"><line x2="13.533" y2="12.918" transform="translate(1103.5 1173.5)" fill="none" stroke="#f56476" stroke-width="4"/><line x1="13.533" y2="12.918" transform="translate(1103.5 1173.5)" fill="none" stroke="#f56476" stroke-width="4"/></g></g><g opacity="0.45"><g transform="translate(150 1377)" fill="none" stroke="#75b9be" stroke-width="4" opacity="0.66"><circle cx="15" cy="15" r="15" stroke="none"/><circle cx="15" cy="15" r="13" fill="none"/></g><g transform="translate(298.979 1160.452) rotate(-45)" fill="none" stroke="#f56476" stroke-width="4" opacity="0.82"><rect width="17" height="17" stroke="none"/><rect x="2" y="2" width="13" height="13" fill="none"/></g><g transform="translate(125 943)" fill="none" opacity="0.45"><path d="M12.5,0,25,23H0Z" stroke="none"/><path d="M 12.5 8.376729965209961 L 6.726484298706055 19 L 18.27351570129395 19 L 12.5 8.376729965209961 M 12.5 0 L 25 23 L 0 23 L 12.5 0 Z" stroke="none" fill="#d18672"/></g><g transform="translate(-668.767 106.041)"><line x2="13.533" y2="12.918" transform="translate(1103.5 1173.5)" fill="none" stroke="#dfbbb1" stroke-width="4"/><line x1="13.533" y2="12.918" transform="translate(1103.5 1173.5)" fill="none" stroke="#dfbbb1" stroke-width="4"/></g></g></g></svg>